<?xml version="1.0" encoding="UTF-8"?>
<svg version="1.1" xmlns="http://www.w3.org/2000/svg" width="932" height="302">
<path d="M0 0 C5.23372561 1.40203304 8.73218869 3.75064407 12.9375 7 C17.95187023 10.775016 23.00584314 14.42562344 28.25 17.875 C34.04239472 21.69000954 39.78309797 25.57266726 45.5 29.5 C59.29126246 39.00192784 59.29126246 39.00192784 73.35546875 48.08984375 C76 50 76 50 77 53 C77.08911617 54.52283906 77.12197818 56.04930942 77.12025452 57.57475281 C77.12231651 58.98189545 77.12231651 58.98189545 77.12442017 60.41746521 C77.11902725 61.95818443 77.11902725 61.95818443 77.11352539 63.5300293 C77.11367142 64.61311371 77.11381744 65.69619812 77.1139679 66.81210327 C77.11327007 70.39949533 77.10548372 73.98683574 77.09765625 77.57421875 C77.09579161 80.0585782 77.09436792 82.54293802 77.09336853 85.02729797 C77.0899378 90.90271603 77.0820527 96.77811496 77.07201904 102.65352517 C77.05974734 109.99883149 77.05437462 117.3441389 77.04882812 124.68945312 C77.03809721 137.7929782 77.02121684 150.89648792 77 164 C76.01 164.33 75.02 164.66 74 165 C71.45995189 163.55305717 69.13856735 162.04723969 66.75 160.375 C65.97986572 159.84865967 65.20973145 159.32231934 64.41625977 158.7800293 C62.63377616 157.56176303 60.85412864 156.33934137 59.07666016 155.11376953 C55.6598161 152.76628216 52.22837794 150.44128262 48.79296875 148.12109375 C44.1682489 144.99741165 39.54659976 141.86935377 34.93041992 138.73306274 C29.73394684 135.20253362 24.53265546 131.68021491 19.30732727 128.19248962 C16.96150748 126.62613446 14.6194934 125.0541452 12.27786255 123.48153687 C10.65630939 122.3959606 9.02925121 121.3186218 7.40209961 120.24145508 C5.95395874 119.26728638 5.95395874 119.26728638 4.4765625 118.2734375 C3.2093335 117.42918213 3.2093335 117.42918213 1.91650391 116.56787109 C0 115 0 115 -1 112 C-1.09112235 110.47946516 -1.12627853 108.95523893 -1.12698364 107.43197632 C-1.12980347 106.49532639 -1.13262329 105.55867645 -1.13552856 104.59364319 C-1.13350433 103.56806808 -1.1314801 102.54249298 -1.12939453 101.48583984 C-1.13114685 100.40436172 -1.13289917 99.32288361 -1.13470459 98.20863342 C-1.13911392 94.6260519 -1.13618873 91.04351954 -1.1328125 87.4609375 C-1.1334857 84.97897329 -1.13445587 82.49700915 -1.13571167 80.01504517 C-1.13737649 74.14436215 -1.13387103 68.27369707 -1.1285609 62.40301669 C-1.12480265 57.71365752 -1.12613715 53.02431933 -1.13037109 48.33496094 C-1.13614986 41.88005589 -1.13708507 35.42517118 -1.13381577 28.97026443 C-1.13314639 26.50377014 -1.13397527 24.037275 -1.13629532 21.57078171 C-1.13882007 18.13228784 -1.13498403 14.69386001 -1.12939453 11.25537109 C-1.13141876 10.22574753 -1.13344299 9.19612396 -1.13552856 8.13529968 C-1.13270874 7.2042894 -1.12988892 6.27327911 -1.12698364 5.3140564 C-1.12660662 4.50032248 -1.12622959 3.68658855 -1.12584114 2.84819603 C-1 1 -1 1 0 0 Z " fill="#CD178F" transform="translate(39,105)"/>
<path d="M0 0 C3.05220983 1.17871839 5.53682136 2.88940249 8.25146484 4.71582031 C8.84391998 5.11220703 9.43637512 5.50859375 10.04678345 5.91699219 C11.98996797 7.21928389 13.92740325 8.5298574 15.86474609 9.84082031 C17.21692581 10.75008799 18.56938664 11.65893774 19.92211914 12.56738281 C23.3580256 14.87731819 26.78880782 17.1947333 30.21765137 19.51513672 C32.06426658 20.76438865 33.9120099 22.01194859 35.76025391 23.25878906 C41.99062238 27.46323526 48.20452556 31.69084023 54.40185547 35.94384766 C57.09400585 37.78392581 59.79847266 39.60456604 62.50537109 41.42285156 C64.08400529 42.49892785 65.66216451 43.57570143 67.23974609 44.65332031 C67.95493408 45.12705078 68.67012207 45.60078125 69.40698242 46.08886719 C71.33740234 47.42285156 71.33740234 47.42285156 74.17724609 49.84082031 C74.17724609 51.16082031 74.17724609 52.48082031 74.17724609 53.84082031 C72.14868164 55.63671875 72.14868164 55.63671875 69.31396484 57.45019531 C68.28078125 58.12308594 67.24759766 58.79597656 66.18310547 59.48925781 C65.08804688 60.18277344 63.99298828 60.87628906 62.86474609 61.59082031 C60.74212346 62.95824163 58.62102174 64.32802679 56.50146484 65.70019531 C54.92341064 66.71956177 54.92341064 66.71956177 53.31347656 67.75952148 C49.34286101 70.39454387 45.50086865 73.18147696 41.67456055 76.02075195 C38.09164189 78.63201978 34.39297102 81.0561667 30.69287109 83.49707031 C25.42336349 86.98928837 20.2291986 90.59414093 15.02685547 94.18530273 C12.75180252 95.74952063 10.46575677 97.29638209 8.17724609 98.84082031 C7.44352783 99.35169189 6.70980957 99.86256348 5.95385742 100.38891602 C5.25542725 100.85773193 4.55699707 101.32654785 3.83740234 101.80957031 C3.2226001 102.23044922 2.60779785 102.65132813 1.97436523 103.08496094 C0.17724609 103.84082031 0.17724609 103.84082031 -3.63525391 102.65332031 C-5.06314545 101.76541115 -6.45649045 100.82091271 -7.82275391 99.84082031 C-8.65677734 99.25171875 -9.49080078 98.66261719 -10.35009766 98.05566406 C-12.17863022 96.73607743 -13.99670258 95.40188441 -15.80444336 94.05395508 C-18.44454429 92.11813732 -21.1090714 90.27229812 -23.83837891 88.46582031 C-24.88348633 87.77262695 -25.92859375 87.07943359 -27.00537109 86.36523438 C-28.27776353 85.52365944 -29.55023158 84.68219883 -30.82275391 83.84082031 C-37.03545462 79.72938303 -43.24571955 75.61430462 -49.45263672 71.49414062 C-51.37929546 70.21647547 -53.30704587 68.94045509 -55.23583984 67.66601562 C-58.0489662 65.80674906 -60.85809088 63.94157125 -63.66650391 62.07519531 C-64.52691284 61.50847107 -65.38732178 60.94174683 -66.27380371 60.35784912 C-70.13846559 57.78189326 -73.71734957 55.34342752 -76.82275391 51.84082031 C-73.97059336 48.81328959 -71.04594334 46.50682781 -67.56884766 44.23144531 C-66.0384082 43.22210938 -66.0384082 43.22210938 -64.47705078 42.19238281 C-63.41550781 41.49886719 -62.35396484 40.80535156 -61.26025391 40.09082031 C-54.16276463 35.43875881 -47.1623486 30.71796121 -40.34106445 25.66699219 C-37.67290456 23.73215593 -34.95047596 21.90291624 -32.19775391 20.09082031 C-26.32087608 16.21899492 -20.58507326 12.16351416 -14.87304688 8.05273438 C-3.20073475 -0.27951769 -3.20073475 -0.27951769 0 0 Z " fill="#ED6344" transform="translate(116.82275390625,35.1591796875)"/>
<path d="M0 0 C2 2 2 2 2 4.3125 C0.56352136 8.17303634 -1.71942245 9.55701672 -5 12 C-5.70125 11.51789063 -6.4025 11.03578125 -7.125 10.5390625 C-16.68725376 4.17288812 -25.03546164 1.38366657 -36.578125 3.46484375 C-45.29295088 5.723748 -51.86558124 10.66511606 -57 18 C-59.15597876 22.49237416 -60.49342097 27.03552549 -61 32 C-61.06445312 32.63164062 -61.12890625 33.26328125 -61.1953125 33.9140625 C-61.7081679 43.31641146 -58.96025539 52.25758268 -52.9375 59.5 C-45.87520223 66.53936823 -38.91108235 69.42156768 -28.9375 69.5625 C-22.33344019 69.47616734 -16.8231672 68.11152067 -11 65 C-10.34 64.67 -9.68 64.34 -9 64 C-9 58.06 -9 52.12 -9 46 C-10.34835937 46.02320313 -11.69671875 46.04640625 -13.0859375 46.0703125 C-14.84895281 46.08906798 -16.61197409 46.10726842 -18.375 46.125 C-19.26445312 46.14175781 -20.15390625 46.15851563 -21.0703125 46.17578125 C-22.34648437 46.18544922 -22.34648437 46.18544922 -23.6484375 46.1953125 C-24.82672119 46.21102295 -24.82672119 46.21102295 -26.02880859 46.22705078 C-28 46 -28 46 -30 44 C-30.30078125 42.125 -30.30078125 42.125 -30.3125 40 C-30.32925781 39.29875 -30.34601563 38.5975 -30.36328125 37.875 C-30.24339844 37.25625 -30.12351562 36.6375 -30 36 C-26.38903046 33.59268697 -24.72434331 33.75467227 -20.43359375 33.76953125 C-19.14388672 33.77146484 -17.85417969 33.77339844 -16.52539062 33.77539062 C-15.85483643 33.78159424 -15.18428223 33.78779785 -14.4934082 33.79418945 C-12.44144297 33.81246488 -10.38992882 33.81469891 -8.33789062 33.81445312 C1.71946776 33.85973388 1.71946776 33.85973388 4 35 C4.22324847 40.01679391 4.38612008 45.03067531 4.49438477 50.05126953 C4.53952418 51.75686004 4.60085724 53.46210452 4.67895508 55.16650391 C5.31031545 69.30402433 5.31031545 69.30402433 2.14111328 73.40600586 C-0.19587306 74.99631316 -2.34761308 76.04078675 -5 77 C-5.95390625 77.47050781 -6.9078125 77.94101563 -7.890625 78.42578125 C-8.66921875 78.71839844 -9.4478125 79.01101562 -10.25 79.3125 C-11.43335938 79.77076172 -11.43335938 79.77076172 -12.640625 80.23828125 C-24.44614896 84.0496673 -38.20639957 83.11243005 -49.35546875 77.8984375 C-61.27003332 71.71164518 -68.33262876 62.51812902 -73 50 C-76.58214316 37.50745966 -74.51985189 23.13478566 -68.375 11.9375 C-61.49546042 1.16068431 -52.37446181 -5.70014352 -40 -9 C-25.37886602 -11.7076174 -11.99822568 -8.77918952 0 0 Z " fill="#EDEDED" transform="translate(287,118)"/>
<path d="M0 0 C7.95377101 7.05528947 11.32099836 15.56195302 12.06640625 25.94140625 C12.21848134 36.31016217 9.0184761 44.53550883 1.99609375 52.16796875 C-6.14750865 59.8755579 -12.85349546 61.55759896 -24.04296875 61.3671875 C-30.7193819 60.50637078 -37.09363575 57.668083 -41.890625 52.87109375 C-41.91568115 53.73911621 -41.9407373 54.60713867 -41.96655273 55.50146484 C-42.06161984 58.71822538 -42.16085703 61.93482224 -42.26293945 65.15136719 C-42.30628346 66.54421965 -42.34795896 67.93712506 -42.38793945 69.33007812 C-42.44565432 71.33086026 -42.50984369 73.33145234 -42.57421875 75.33203125 C-42.62920532 77.13873291 -42.62920532 77.13873291 -42.68530273 78.98193359 C-42.890625 81.87109375 -42.890625 81.87109375 -43.890625 83.87109375 C-45.53637066 83.89797526 -47.18223913 83.91743498 -48.828125 83.93359375 C-49.74464844 83.94519531 -50.66117187 83.95679688 -51.60546875 83.96875 C-53.890625 83.87109375 -53.890625 83.87109375 -54.890625 82.87109375 C-54.99111023 80.13758627 -55.02678761 77.42931483 -55.02001953 74.6953125 C-55.02177185 73.83845856 -55.02352417 72.98160461 -55.02532959 72.0987854 C-55.02974917 69.25203455 -55.02680975 66.40534528 -55.0234375 63.55859375 C-55.02411051 61.58943673 -55.02508051 59.62027978 -55.02633667 57.65112305 C-55.02781379 53.5183839 -55.02565864 49.38566633 -55.02099609 45.25292969 C-55.0152988 39.94284854 -55.01857773 34.63281794 -55.02456856 29.32273865 C-55.0281738 25.25483822 -55.02703576 21.18694986 -55.02444077 17.11904907 C-55.02377139 15.16053257 -55.02460027 13.20201499 -55.02692032 11.24349976 C-55.02944624 8.51126175 -55.02560711 5.77910678 -55.02001953 3.046875 C-55.02204376 2.22917633 -55.02406799 1.41147766 -55.02615356 0.56900024 C-55.00488746 -5.01464379 -55.00488746 -5.01464379 -53.890625 -6.12890625 C-52.37134462 -6.20070589 -50.84895018 -6.21282632 -49.328125 -6.19140625 C-48.50183594 -6.18238281 -47.67554688 -6.17335937 -46.82421875 -6.1640625 C-46.18613281 -6.15246094 -45.54804688 -6.14085937 -44.890625 -6.12890625 C-43.4123024 -3.17226106 -43.83029717 -0.38660888 -43.890625 2.87109375 C-43.38273437 2.47277344 -42.87484375 2.07445312 -42.3515625 1.6640625 C-28.83051028 -8.74259005 -14.30962612 -10.17404268 0 0 Z M-39.265625 12.43359375 C-42.96088721 17.86542727 -44.25508719 23.8743643 -43.66015625 30.3984375 C-42.11887021 38.31564184 -38.41078547 43.23982097 -31.890625 47.87109375 C-26.56575708 50.36358512 -21.17966777 50.83910634 -15.5546875 49.18359375 C-8.92370208 46.54001152 -4.96402108 42.71742766 -2.078125 36.12109375 C0.20850907 29.27425803 -0.07263205 22.25069045 -2.90625 15.62109375 C-5.70110831 10.65245675 -10.52257452 6.66044391 -15.890625 4.87109375 C-25.55010177 3.99816326 -32.77451506 4.8346261 -39.265625 12.43359375 Z " fill="#EEEEEE" transform="translate(483.890625,139.12890625)"/>
<path d="M0 0 C0.68972456 7.80155113 -0.81347523 11.3414137 -5.625 17.375 C-6.20894531 18.14392578 -6.79289063 18.91285156 -7.39453125 19.70507812 C-8.62771168 21.32872187 -9.86910498 22.94615686 -11.11816406 24.55761719 C-14.14679218 28.48838985 -17.06698878 32.49770469 -20 36.5 C-21.17158652 38.08745253 -22.34346158 39.67469215 -23.515625 41.26171875 C-26.95277805 45.92683793 -30.3582188 50.61431503 -33.75 55.3125 C-34.23210938 55.98023438 -34.71421875 56.64796875 -35.2109375 57.3359375 C-40.16300029 64.20791769 -45.07931186 71.10554204 -50 78 C-49.36328873 77.99777939 -48.72657745 77.99555878 -48.0705719 77.99327087 C-41.46884724 77.9712196 -34.86713296 77.95609407 -28.26538086 77.94506836 C-25.79857967 77.94002644 -23.33178148 77.93319309 -20.86499023 77.92456055 C-17.32795471 77.91248875 -13.79095855 77.90677044 -10.25390625 77.90234375 C-9.14350479 77.89718246 -8.03310333 77.89202118 -6.88905334 77.88670349 C-5.35757912 77.88659019 -5.35757912 77.88659019 -3.79516602 77.88647461 C-2.89137711 77.884254 -1.9875882 77.88203339 -1.05641174 77.87974548 C1 78 1 78 2 79 C2.0979057 80.49738124 2.12974864 81.99942892 2.125 83.5 C2.12886719 84.72203125 2.12886719 84.72203125 2.1328125 85.96875 C2 88 2 88 1 89 C-1.08075409 89.09943972 -3.16491848 89.12799596 -5.24804688 89.12939453 C-5.90007584 89.13114685 -6.5521048 89.13289917 -7.22389221 89.13470459 C-9.38887153 89.13912204 -11.55376979 89.13618551 -13.71875 89.1328125 C-15.21708187 89.13348557 -16.71541363 89.13445562 -18.21374512 89.13571167 C-21.35783933 89.1371885 -24.50190517 89.13503458 -27.64599609 89.13037109 C-31.68486539 89.1246738 -35.72366824 89.12795289 -39.7625351 89.13394356 C-42.8576508 89.13754958 -45.95275065 89.13641039 -49.04786682 89.13381577 C-50.53748075 89.13314661 -52.0270961 89.13397452 -53.51670837 89.13629532 C-55.59516235 89.13882253 -57.67350731 89.13498033 -59.75195312 89.12939453 C-61.5294696 89.12820114 -61.5294696 89.12820114 -63.34289551 89.12698364 C-66 89 -66 89 -67 88 C-67.98643864 80.36582268 -65.32387732 76.59542104 -60.8125 70.625 C-60.17973145 69.75649414 -59.54696289 68.88798828 -58.89501953 67.99316406 C-57.5833197 66.19525037 -56.26391259 64.40293536 -54.93701172 62.61621094 C-53.13305767 60.17971338 -51.35878847 57.72536999 -49.59765625 55.2578125 C-43.93212579 47.32402484 -38.13734459 39.4965026 -32.26196289 31.71728516 C-24.49940748 21.75403419 -24.49940748 21.75403419 -18 11 C-18.58659897 11.00222061 -19.17319794 11.00444122 -19.77757263 11.00672913 C-25.86025384 11.0287821 -31.94292377 11.04390664 -38.02563477 11.05493164 C-40.29842591 11.05997325 -42.5712138 11.06680637 -44.84399414 11.07543945 C-48.10303551 11.08751261 -51.36203417 11.09322987 -54.62109375 11.09765625 C-55.64400009 11.10281754 -56.66690643 11.10797882 -57.72080994 11.11329651 C-58.66170975 11.11337204 -59.60260956 11.11344757 -60.57202148 11.11352539 C-61.40475082 11.115746 -62.23748016 11.11796661 -63.09544373 11.12025452 C-65 11 -65 11 -66 10 C-66.0979057 8.50261876 -66.12974864 7.00057108 -66.125 5.5 C-66.12757813 4.6853125 -66.13015625 3.870625 -66.1328125 3.03125 C-66 1 -66 1 -65 0 C-62.61655219 -0.25604678 -60.26696266 -0.43421774 -57.875 -0.5625 C-56.71605225 -0.6251001 -56.71605225 -0.6251001 -55.53369141 -0.68896484 C-37.11122942 -1.54818875 -18.37311083 -1.6675757 0 0 Z " fill="#F0F0F0" transform="translate(756,110)"/>
<path d="M0 0 C3.63 0 7.26 0 11 0 C11.95952319 3.83809275 12.11490298 6.80212039 12.09765625 10.734375 C12.09443359 12.02988281 12.09121094 13.32539062 12.08789062 14.66015625 C12.07953598 16.02343817 12.07107104 17.38671942 12.0625 18.75 C12.05748168 20.12890465 12.05291935 21.50781104 12.04882812 22.88671875 C12.03704093 26.25785659 12.02058635 29.62890628 12 33 C12.79664063 32.48143433 12.79664063 32.48143433 13.609375 31.95239258 C14.31578125 31.50017334 15.0221875 31.0479541 15.75 30.58203125 C16.44609375 30.1331958 17.1421875 29.68436035 17.859375 29.22192383 C24.01072296 25.71057614 31.38858577 24.97878716 38.2578125 26.5 C44.46927084 28.35290961 49.87171963 30.75244264 53.5078125 36.30078125 C57.72506004 44.2412559 58.15366088 51.78484043 58.1328125 60.6171875 C58.13376923 61.51494904 58.13472595 62.41271057 58.13571167 63.337677 C58.13638865 65.22186351 58.13456821 67.10605242 58.13037109 68.99023438 C58.12497808 71.88677107 58.13035167 74.78315535 58.13671875 77.6796875 C58.13605862 79.51302118 58.13477882 81.34635476 58.1328125 83.1796875 C58.13483673 84.04939178 58.13686096 84.91909607 58.13894653 85.81515503 C58.11497554 91.88502446 58.11497554 91.88502446 57 93 C55.14712498 93.07226502 53.29166122 93.0838122 51.4375 93.0625 C50.42558594 93.05347656 49.41367187 93.04445313 48.37109375 93.03515625 C47.58863281 93.02355469 46.80617188 93.01195312 46 93 C45.98541748 91.79988281 45.97083496 90.59976563 45.95581055 89.36328125 C45.89754982 84.88268215 45.82031967 80.40257107 45.73754883 75.92236328 C45.70442963 73.98852498 45.67635776 72.05459304 45.65356445 70.12060547 C45.61977815 67.33000021 45.5674517 64.54024309 45.51171875 61.75 C45.50532883 60.89446533 45.4989389 60.03893066 45.49235535 59.1574707 C45.33325622 52.5645907 44.3078421 46.81268256 40 41.5625 C35.39032437 37.96119091 29.57050037 38.43205792 24 39 C19.65884225 40.50691267 16.32704395 42.9923132 14 47 C12.75375252 50.73874245 12.63157941 54.34693585 12.4375 58.25 C12.39431641 59.07032715 12.35113281 59.8906543 12.30664062 60.73583984 C11.9309223 68.72283609 11.940913 76.70238728 12.03686523 84.69628906 C12.04532471 85.6344043 12.05378418 86.57251953 12.0625 87.5390625 C12.07410156 88.37646973 12.08570313 89.21387695 12.09765625 90.07666016 C12 92 12 92 11 93 C9.14712498 93.07226502 7.29166122 93.0838122 5.4375 93.0625 C3.91962891 93.04896484 3.91962891 93.04896484 2.37109375 93.03515625 C1.58863281 93.02355469 0.80617188 93.01195312 0 93 C-1.11500022 88.52765175 -1.14123072 84.14824198 -1.12939453 79.56958008 C-1.13114685 78.73325546 -1.13289917 77.89693085 -1.13470459 77.03526306 C-1.13909432 74.27999782 -1.13619605 71.52479711 -1.1328125 68.76953125 C-1.13348617 66.85332731 -1.13445673 64.93712345 -1.13571167 63.0209198 C-1.13718458 59.01043888 -1.13504643 54.99998027 -1.13037109 50.98950195 C-1.12466249 45.84105825 -1.12796253 40.69266655 -1.13394356 35.54422474 C-1.13755029 31.59038396 -1.13641026 27.6365556 -1.13381577 23.68271446 C-1.13314741 21.7836373 -1.13397175 19.88455903 -1.13629532 17.98548317 C-1.13882492 15.33770364 -1.1349774 12.69000947 -1.12939453 10.04223633 C-1.13141876 9.25311859 -1.13344299 8.46400085 -1.13552856 7.65097046 C-1.11426664 2.22853327 -1.11426664 2.22853327 0 0 Z " fill="#F4F4F4" transform="translate(512,106)"/>
<path d="M0 0 C6.52434179 5.43695149 8.32132919 12.05632038 9.625 20.1875 C10.05494149 26.30055672 9.97491063 32.43072512 9.90625 38.55493164 C9.87464324 41.40719466 9.86522462 44.25890603 9.859375 47.11132812 C9.85022095 48.92188182 9.83985034 50.73242988 9.828125 52.54296875 C9.82175018 53.82399727 9.82175018 53.82399727 9.81524658 55.13090515 C9.742281 61.070219 9.742281 61.070219 8.625 62.1875 C6.93891034 62.25955511 5.24999341 62.27136068 3.5625 62.25 C2.18384766 62.23646484 2.18384766 62.23646484 0.77734375 62.22265625 C-0.28806641 62.20525391 -0.28806641 62.20525391 -1.375 62.1875 C-2.035 60.5375 -2.695 58.8875 -3.375 57.1875 C-3.91769531 57.53683594 -4.46039062 57.88617188 -5.01953125 58.24609375 C-5.73496094 58.70113281 -6.45039062 59.15617187 -7.1875 59.625 C-7.89519531 60.07746094 -8.60289062 60.52992188 -9.33203125 60.99609375 C-15.36436723 64.51399523 -23.58210177 63.98064758 -30.375 63.1875 C-37.3858871 61.08336078 -41.666772 57.66153233 -45.44140625 51.42578125 C-47.67218026 46.0775239 -47.32014504 39.20044966 -45.60546875 33.734375 C-42.47418267 27.93651668 -37.48016419 25.24341181 -31.375 23.1875 C-28.02320511 22.47116744 -24.79728257 22.25311899 -21.375 22.1875 C-19.84746094 22.14689453 -19.84746094 22.14689453 -18.2890625 22.10546875 C-13.21132469 22.03651182 -8.358322 22.08009511 -3.375 23.1875 C-4.29228893 16.68000239 -4.29228893 16.68000239 -6.8125 10.6875 C-12.0806891 7.60368199 -18.57188358 6.48388804 -24.5625 7.8125 C-28.11563332 8.92376803 -31.36520825 10.57759546 -34.61328125 12.3828125 C-36.375 13.1875 -36.375 13.1875 -39.375 13.1875 C-41.3950708 10.6624115 -42.31954539 8.92689477 -42.5625 5.6875 C-40.32878058 0.98493279 -35.3265281 -0.86053507 -30.8125 -3.0625 C-20.03801142 -6.37772726 -9.8385276 -5.28365371 0 0 Z M-32.375 35.1875 C-34.83861402 38.88292103 -35.16213704 41.90011527 -34.375 46.1875 C-31.86018336 49.9191634 -29.36318269 51.44484055 -25.125 52.625 C-19.37926736 53.60807386 -14.33202744 53.01240836 -9.32421875 49.921875 C-5.41577799 46.84691126 -3.31505826 44.20114405 -2.375 39.1875 C-2.12363967 35.97833829 -2.12363967 35.97833829 -2.375 33.1875 C-4.70129561 30.86120439 -10.31803846 31.95430518 -13.4375 31.9375 C-14.83258789 31.9065625 -14.83258789 31.9065625 -16.25585938 31.875 C-22.33458075 31.84082588 -26.87982895 32.51788228 -32.375 35.1875 Z " fill="#ECECEC" transform="translate(881.375,136.8125)"/>
<path d="M0 0 C4.51430042 4.11731421 7.61942121 9.37259024 8.25985718 15.47677612 C8.34599487 18.38380127 8.3373817 21.27563586 8.29296875 24.18359375 C8.28872391 25.23909927 8.28447906 26.2946048 8.28010559 27.38209534 C8.26339049 30.73416271 8.22575088 34.0856161 8.1875 37.4375 C8.17244393 39.71809024 8.15875714 41.99868996 8.14648438 44.27929688 C8.11351034 49.85309907 8.06177702 55.42644564 8 61 C4.7 61 1.4 61 -2 61 C-2.33 59.35 -2.66 57.7 -3 56 C-3.68707031 56.34933594 -4.37414062 56.69867188 -5.08203125 57.05859375 C-6.43361328 57.74115234 -6.43361328 57.74115234 -7.8125 58.4375 C-8.70582031 58.88996094 -9.59914063 59.34242188 -10.51953125 59.80859375 C-17.56394308 63.19213014 -26.57080693 63.32248751 -34.03515625 61.09375 C-39.80373028 58.37912693 -44.24130549 55.19244348 -46.7734375 49.15625 C-48.72290918 42.77616087 -48.35510321 36.71020643 -45.375 30.75 C-39.10483465 23.48980855 -33.54803113 22.10427297 -24.3125 21.26953125 C-17.87474114 20.80780674 -11.44977254 20.83319554 -5 21 C-5.25381858 15.00109824 -5.25381858 15.00109824 -8.4375 10.0625 C-13.94134701 5.63257436 -20.17847538 6.31496317 -27 7 C-29.87516312 8.10152353 -32.3135529 9.36638399 -34.9140625 11.00390625 C-37 12 -37 12 -39.1640625 11.875 C-42.35902733 10.35229336 -42.85063496 7.16075385 -44 4 C-32.14984161 -6.93860775 -13.42772658 -10.42193842 0 0 Z M-33.9375 35.1875 C-35.78028488 38.33107421 -35.69682646 41.53616364 -35 45 C-32.48518336 48.7316634 -29.98818269 50.25734055 -25.75 51.4375 C-20.20249583 52.39746744 -15.03803352 51.85008451 -10.171875 48.88671875 C-7.25627658 46.6009462 -5.36530878 44.41327196 -4 41 C-3.72358195 38.67296378 -3.72358195 38.67296378 -3.8125 36.3125 C-3.81894531 35.52488281 -3.82539063 34.73726562 -3.83203125 33.92578125 C-3.79266331 31.99300636 -3.79266331 31.99300636 -5 31 C-8.19957045 30.71955956 -11.41461409 30.76811219 -14.625 30.75 C-15.51574219 30.729375 -16.40648437 30.70875 -17.32421875 30.6875 C-23.89759747 30.64877612 -28.28866181 31.72530885 -33.9375 35.1875 Z " fill="#EDEDED" transform="translate(401,138)"/>
<path d="M0 0 C1.53125 1.78125 1.53125 1.78125 2.53125 5.78125 C0.22125 7.43125 -2.08875 9.08125 -4.46875 10.78125 C-7.24207272 9.14988369 -9.93176167 7.46640207 -12.59375 5.65625 C-18.20378483 1.99753163 -23.9504969 2.04598444 -30.46875 2.78125 C-36.45813545 5.10563308 -40.83512232 9.27219415 -43.55078125 15.10546875 C-45.76040515 21.54628734 -45.17130392 28.86862769 -42.4375 35.0703125 C-39.34056924 40.53989182 -34.30916554 43.81339828 -28.46875 45.78125 C-21.80760532 46.95257029 -16.19914705 45.21948823 -10.46875 41.78125 C-9.72625 41.018125 -8.98375 40.255 -8.21875 39.46875 C-7.64125 38.911875 -7.06375 38.355 -6.46875 37.78125 C-2.60747576 37.87778186 -0.36118882 39.31732063 2.53125 41.78125 C1.8734766 47.03442659 -0.11757575 48.89381583 -4.11328125 52.1328125 C-12.33301538 57.88526325 -20.58915171 58.86165703 -30.46875 57.78125 C-38.37193089 56.07545489 -43.90931858 52.56517152 -49.46875 46.78125 C-50.21125 46.018125 -50.95375 45.255 -51.71875 44.46875 C-58.06542636 34.72206845 -59.1791644 24.18606779 -56.87890625 12.8828125 C-53.9091139 4.20609198 -47.39665438 -3.00928243 -39.34375 -7.28125 C-25.21909871 -13.41204189 -11.20751823 -9.78434131 0 0 Z " fill="#EDEDED" transform="translate(675.46875,142.21875)"/>
<path d="M0 0 C0 18.48 0 36.96 0 56 C-5 57 -5 57 -7.5168457 55.81933594 C-8.39429443 55.21379883 -9.27174316 54.60826172 -10.17578125 53.984375 C-11.16191406 53.31470703 -12.14804688 52.64503906 -13.1640625 51.95507812 C-14.72253906 50.86356445 -14.72253906 50.86356445 -16.3125 49.75 C-17.37597656 49.02232422 -18.43945312 48.29464844 -19.53515625 47.54492188 C-22.69928777 45.37626893 -25.84991374 43.18898282 -29 41 C-30.71101671 39.82634024 -32.42314001 38.65429094 -34.13671875 37.484375 C-37.76757611 35.00346545 -41.38747263 32.507519 -45 30 C-44.84667969 28.25073242 -44.84667969 28.25073242 -44 26 C-41.61425781 24.03637695 -41.61425781 24.03637695 -38.453125 21.98828125 C-37.60255524 21.42949532 -37.60255524 21.42949532 -36.73480225 20.85942078 C-34.91348463 19.66603906 -33.08231998 18.48890254 -31.25 17.3125 C-29.47054866 16.15558944 -27.69329543 14.99537533 -25.91662598 13.834198 C-24.73232621 13.06172507 -23.54603809 12.29229203 -22.35778809 11.52590942 C-19.29994462 9.5456908 -16.29805109 7.51680414 -13.34960938 5.37646484 C-12.76290466 4.95407028 -12.17619995 4.53167572 -11.57171631 4.09648132 C-9.95159016 2.92230132 -8.34214492 1.73342473 -6.73339844 0.54370117 C-4 -1 -4 -1 0 0 Z " fill="#8F2781" transform="translate(192,167)"/>
<path d="M0 0 C5.23372561 1.40203304 8.73218869 3.75064407 12.9375 7 C17.95187023 10.775016 23.00584314 14.42562344 28.25 17.875 C34.04239472 21.69000954 39.78309797 25.57266726 45.5 29.5 C59.29126246 39.00192784 59.29126246 39.00192784 73.35546875 48.08984375 C76 50 76 50 77 53 C77.08911617 54.52283906 77.12197818 56.04930942 77.12025452 57.57475281 C77.12231651 58.98189545 77.12231651 58.98189545 77.12442017 60.41746521 C77.11902725 61.95818443 77.11902725 61.95818443 77.11352539 63.5300293 C77.11367142 64.61311371 77.11381744 65.69619812 77.1139679 66.81210327 C77.11327007 70.39949533 77.10548372 73.98683574 77.09765625 77.57421875 C77.09579161 80.0585782 77.09436792 82.54293802 77.09336853 85.02729797 C77.0899378 90.90271603 77.0820527 96.77811496 77.07201904 102.65352517 C77.05974734 109.99883149 77.05437462 117.3441389 77.04882812 124.68945312 C77.03809721 137.7929782 77.02121684 150.89648792 77 164 C76.01 164.33 75.02 164.66 74 165 C71.45995189 163.55305717 69.13856735 162.04723969 66.75 160.375 C65.97986572 159.84865967 65.20973145 159.32231934 64.41625977 158.7800293 C62.63377616 157.56176303 60.85412864 156.33934137 59.07666016 155.11376953 C55.6598161 152.76628216 52.22837794 150.44128262 48.79296875 148.12109375 C44.1682489 144.99741165 39.54659976 141.86935377 34.93041992 138.73306274 C29.73394684 135.20253362 24.53265546 131.68021491 19.30732727 128.19248962 C16.96150748 126.62613446 14.6194934 125.0541452 12.27786255 123.48153687 C10.65630939 122.3959606 9.02925121 121.3186218 7.40209961 120.24145508 C5.95395874 119.26728638 5.95395874 119.26728638 4.4765625 118.2734375 C3.2093335 117.42918213 3.2093335 117.42918213 1.91650391 116.56787109 C0 115 0 115 -1 112 C-1.09112235 110.47946516 -1.12627853 108.95523893 -1.12698364 107.43197632 C-1.12980347 106.49532639 -1.13262329 105.55867645 -1.13552856 104.59364319 C-1.13350433 103.56806808 -1.1314801 102.54249298 -1.12939453 101.48583984 C-1.13114685 100.40436172 -1.13289917 99.32288361 -1.13470459 98.20863342 C-1.13911392 94.6260519 -1.13618873 91.04351954 -1.1328125 87.4609375 C-1.1334857 84.97897329 -1.13445587 82.49700915 -1.13571167 80.01504517 C-1.13737649 74.14436215 -1.13387103 68.27369707 -1.1285609 62.40301669 C-1.12480265 57.71365752 -1.12613715 53.02431933 -1.13037109 48.33496094 C-1.13614986 41.88005589 -1.13708507 35.42517118 -1.13381577 28.97026443 C-1.13314639 26.50377014 -1.13397527 24.037275 -1.13629532 21.57078171 C-1.13882007 18.13228784 -1.13498403 14.69386001 -1.12939453 11.25537109 C-1.13141876 10.22574753 -1.13344299 9.19612396 -1.13552856 8.13529968 C-1.13270874 7.2042894 -1.12988892 6.27327911 -1.12698364 5.3140564 C-1.12660662 4.50032248 -1.12622959 3.68658855 -1.12584114 2.84819603 C-1 1 -1 1 0 0 Z M4 5 C0.85028519 9.72457221 1.78886298 14.52204086 2.5625 19.9375 C2.97035124 22.83839627 2.92877474 25.32965617 2.53443909 28.23106384 C2.00288675 32.63263597 1.86422355 36.93602089 1.88647461 41.36547852 C1.88632858 42.1470784 1.88618256 42.92867828 1.8860321 43.73396301 C1.88672117 46.28230703 1.89446573 48.83057522 1.90234375 51.37890625 C1.90421151 53.15966248 1.90563372 54.94041922 1.90663147 56.72117615 C1.91042843 61.38177945 1.92023428 66.04235103 1.93133545 70.70294189 C1.94161057 75.46927461 1.9461421 80.2356125 1.95117188 85.00195312 C1.96185937 94.33464927 1.97890147 103.66732198 2 113 C3.32 113 4.64 113 6 113 C6 113.66 6 114.32 6 115 C6.99 115 7.98 115 9 115 C9 115.66 9 116.32 9 117 C12.22114157 119.31592022 12.22114157 119.31592022 16 120 C16.33 120.99 16.66 121.98 17 123 C17.94875 123.474375 18.8975 123.94875 19.875 124.4375 C23.11555215 126.05777607 23.95581468 127.15591608 26 130 C27.63631892 131.04892238 29.30485863 132.04906703 31 133 C31.70125 133.53625 32.4025 134.0725 33.125 134.625 C35.05737672 136.18913067 35.05737672 136.18913067 38 137 C38.53625 137.598125 39.0725 138.19625 39.625 138.8125 C43.54371654 142.42184419 48.6223038 145 54 145 C54.1546875 145.9590625 54.1546875 145.9590625 54.3125 146.9375 C54.539375 147.618125 54.76625 148.29875 55 149 C55.99 149.33 56.98 149.66 58 150 C58.66 150.99 59.32 151.98 60 153 C60.99 153 61.98 153 63 153 C63 153.66 63 154.32 63 155 C64.65 155 66.3 155 68 155 C68.103125 155.61875 68.20625 156.2375 68.3125 156.875 C68.87525373 159.36526484 68.87525373 159.36526484 72 161 C72.99 160.67 73.98 160.34 75 160 C74.75279592 142.24659258 74.49170316 124.49346375 74.20410156 106.74066162 C74.18017118 105.26281746 74.15624534 103.78497322 74.13232422 102.30712891 C74.1207365 101.59196358 74.10914879 100.87679825 74.09720993 100.13996124 C74.02734678 95.79698366 73.96294922 91.45396575 73.90283203 87.11083984 C73.83780733 82.43046348 73.76025527 77.75052779 73.66915894 73.07058716 C73.63987253 71.4486625 73.61566884 69.82663758 73.59671021 68.20455933 C73.57017362 66.00305965 73.52587109 63.80265184 73.4765625 61.6015625 C73.4468335 59.81226318 73.4468335 59.81226318 73.41650391 57.98681641 C72.9669476 54.7629759 72.1855795 53.3597871 70 51 C68.515 51.495 68.515 51.495 67 52 C67 50.68 67 49.36 67 48 C66.34 48 65.68 48 65 48 C65 47.34 65 46.68 65 46 C62.03 45.505 62.03 45.505 59 45 C59 44.01 59 43.02 59 42 C58.01 42 57.02 42 56 42 C55.67 41.01 55.34 40.02 55 39 C53.67696283 38.6278958 52.34262065 38.29369827 51 38 C50.67 37.34 50.34 36.68 50 36 C48.01399663 34.6459068 46.01182457 33.31542376 44 32 C43.13375 31.278125 42.2675 30.55625 41.375 29.8125 C39.17578566 27.88626255 39.17578566 27.88626255 36.75 27.4375 C36.1725 27.293125 35.595 27.14875 35 27 C34.505 25.515 34.505 25.515 34 24 C31.69 23.67 29.38 23.34 27 23 C27 22.34 27 21.68 27 21 C26.01 21 25.02 21 24 21 C24 20.01 24 19.02 24 18 C23.21625 17.9175 22.4325 17.835 21.625 17.75 C20.325625 17.37875 20.325625 17.37875 19 17 C18.3162955 15.67532254 17.65035814 14.34136367 17 13 C15.34561387 12.30341637 13.67745682 11.63903117 12 11 C10.64631404 9.68733482 9.31200404 8.35432675 8 7 C5.86690808 5.76487921 5.86690808 5.76487921 4 5 Z " fill="#C82285" transform="translate(39,105)"/>
<path d="M0 0 C3.63 0 7.26 0 11 0 C12.84234926 1.84234926 12.12649828 4.43645582 12.13552856 6.88829041 C12.13350433 7.73404129 12.1314801 8.57979218 12.12939453 9.45117188 C12.13114685 10.33728653 12.13289917 11.22340118 12.13470459 12.1363678 C12.1391244 15.08051482 12.13618467 18.02460231 12.1328125 20.96875 C12.1334855 23.00516776 12.1344555 25.04158544 12.13571167 27.07800293 C12.13718882 31.35197716 12.13503355 35.62593053 12.13037109 39.89990234 C12.1246738 45.39158539 12.12795271 50.88321957 12.13394356 56.37490082 C12.13754872 60.58177054 12.13641079 64.78862859 12.13381577 68.99549866 C12.13314637 71.02100124 12.13397535 73.04650486 12.13629532 75.07200623 C12.1388211 77.8976423 12.1349823 80.72319807 12.12939453 83.54882812 C12.13141876 84.39457901 12.13344299 85.2403299 12.13552856 86.11170959 C12.11426241 91.88573759 12.11426241 91.88573759 11 93 C7.37 93 3.74 93 0 93 C0 62.31 0 31.62 0 0 Z " fill="#ECECEC" transform="translate(807,106)"/>
<path d="M0 0 C0.70125 0.00515625 1.4025 0.0103125 2.125 0.015625 C2.82625 0.01046875 3.5275 0.0053125 4.25 0 C6.125 0.265625 6.125 0.265625 8.125 2.265625 C8.52547444 4.58837677 8.8647104 6.92301857 9.125 9.265625 C9.64449219 8.78351563 10.16398437 8.30140625 10.69921875 7.8046875 C17.96648866 1.22250218 22.39249124 -0.07454035 32.125 0.265625 C32.15187279 2.07804552 32.17133715 3.89057733 32.1875 5.703125 C32.19910156 6.71246094 32.21070313 7.72179687 32.22265625 8.76171875 C32.125 11.265625 32.125 11.265625 31.125 12.265625 C29.40009871 12.56241381 27.6697811 12.82798454 25.9375 13.078125 C21.11592061 13.94625911 17.8052431 14.85466798 14.125 18.265625 C9.74575059 25.00401844 8.98757297 31.48766992 8.80859375 39.41015625 C8.78781265 40.17994308 8.76703156 40.94972992 8.74562073 41.74284363 C8.68053951 44.18785167 8.62143409 46.63296183 8.5625 49.078125 C8.51927532 50.74154677 8.47565979 52.40495844 8.43164062 54.06835938 C8.32490093 58.13401148 8.22351829 62.19976571 8.125 66.265625 C4.495 66.265625 0.865 66.265625 -2.875 66.265625 C-4.09437639 59.58368564 -4.03670685 52.96080919 -4.04296875 46.18359375 C-4.04629715 44.93306717 -4.04962555 43.68254059 -4.05305481 42.39411926 C-4.05810329 39.76087816 -4.06046378 37.1276307 -4.06030273 34.49438477 C-4.06020048 31.11711563 -4.07393246 27.74005375 -4.09107494 24.36283398 C-4.10483235 21.13642818 -4.10428197 17.91002493 -4.10546875 14.68359375 C-4.11265427 13.46907028 -4.11983978 12.25454681 -4.12724304 11.0032196 C-4.1226281 9.32556267 -4.1226281 9.32556267 -4.11791992 7.61401367 C-4.11934494 6.62696945 -4.12076996 5.63992523 -4.12223816 4.62297058 C-3.81100728 1.65547257 -3.05154737 0.43230254 0 0 Z " fill="#EBEBEB" transform="translate(313.875,132.734375)"/>
<path d="M0 0 C0.02312684 8.32728947 0.04091683 16.65456563 0.05181217 24.98187923 C0.05704026 28.84820118 0.06413654 32.71450121 0.07543945 36.58081055 C0.086271 40.30903401 0.0922774 44.03723634 0.09487724 47.76547432 C0.09673101 49.19089656 0.10035071 50.61631759 0.10573006 52.04173088 C0.11294393 54.03163408 0.11340808 56.02155834 0.11352539 58.01147461 C0.115746 59.14620712 0.11796661 60.28093964 0.12025452 61.45005798 C0 64 0 64 -1 65 C-2.66429051 65.09823937 -4.33281931 65.12973631 -6 65.125 C-7.36125 65.12886719 -7.36125 65.12886719 -8.75 65.1328125 C-11 65 -11 65 -12 64 C-12.09925773 62.04175302 -12.12799414 60.07990103 -12.12939453 58.11914062 C-12.13254669 56.86113647 -12.13569885 55.60313232 -12.13894653 54.30700684 C-12.13715675 52.92342087 -12.1351058 51.53983522 -12.1328125 50.15625 C-12.13348559 48.74759911 -12.13445565 47.33894834 -12.13571167 45.93029785 C-12.13718842 42.97451677 -12.13503483 40.01876586 -12.13037109 37.06298828 C-12.12467381 33.26625416 -12.12795293 29.46959072 -12.13394356 25.67285919 C-12.13754979 22.76303572 -12.1364103 19.85322912 -12.13381577 16.94340515 C-12.13314667 15.543106 -12.13397432 14.14280533 -12.13629532 12.74250793 C-12.13882283 10.78862536 -12.13429033 8.83473745 -12.12939453 6.88085938 C-12.12859894 5.76690796 -12.12780334 4.65295654 -12.12698364 3.50524902 C-12 1 -12 1 -11 0 C-6.97279717 -0.75984959 -3.92759816 -1.16180608 0 0 Z " fill="#ECECEC" transform="translate(786,134)"/>
<path d="M0 0 C3.63 0 7.26 0 11 0 C12.79096045 1.79096045 12.12766791 4.46332785 12.12939453 6.88085938 C12.13254669 8.13886353 12.13569885 9.39686768 12.13894653 10.69299316 C12.13715675 12.07657913 12.1351058 13.46016478 12.1328125 14.84375 C12.13348559 16.25240089 12.13445565 17.66105166 12.13571167 19.06970215 C12.13718842 22.02548323 12.13503483 24.98123414 12.13037109 27.93701172 C12.12467381 31.73374584 12.12795293 35.53040928 12.13394356 39.32714081 C12.13754979 42.23696428 12.1364103 45.14677088 12.13381577 48.05659485 C12.13314667 49.456894 12.13397432 50.85719467 12.13629532 52.25749207 C12.13882283 54.21137464 12.13429033 56.16526255 12.12939453 58.11914062 C12.12859894 59.23309204 12.12780334 60.34704346 12.12698364 61.49475098 C12 64 12 64 11 65 C7.37 65 3.74 65 0 65 C0 43.55 0 22.1 0 0 Z " fill="#ECECEC" transform="translate(590,134)"/>
<path d="M0 0 C0 3 0 3 -2.3125 5.6875 C-5 8 -5 8 -8 8 C-8 8.66 -8 9.32 -8 10 C-8.81404297 10.36351562 -8.81404297 10.36351562 -9.64453125 10.734375 C-13.81953088 12.69023068 -16.37536702 14.12554179 -19 18 C-20.63183107 19.05589069 -22.30792999 20.0436126 -24 21 C-25.50587104 21.99113694 -27.00536896 22.99199302 -28.5 24 C-31.61925429 26.09325164 -34.7708005 28.07993543 -38 30 C-41.98574417 32.48774189 -41.98574417 32.48774189 -45.5 35.5625 C-47.6916328 37.66281477 -50.26969437 38.72585737 -53 40 C-51.3509683 43.10087759 -51.3509683 43.10087759 -48.875 43.8125 C-45.38335919 45.25469947 -42.80891839 47.31936261 -39.8671875 49.66015625 C-37.93516371 51.18614683 -37.93516371 51.18614683 -35 52 C-35 52.66 -35 53.32 -35 54 C-33.02 54.66 -31.04 55.32 -29 56 C-29 56.66 -29 57.32 -29 58 C-28.236875 58.103125 -27.47375 58.20625 -26.6875 58.3125 C-23.73421485 59.06799155 -23.04132166 59.86992523 -21 62 C-18.89667109 62.71447643 -18.89667109 62.71447643 -17 63 C-17 63.99 -17 64.98 -17 66 C-15.68 66.33 -14.36 66.66 -13 67 C-13 67.66 -13 68.32 -13 69 C-12.030625 69.268125 -11.06125 69.53625 -10.0625 69.8125 C-8.5465625 70.4003125 -8.5465625 70.4003125 -7 71 C-6.67 71.99 -6.34 72.98 -6 74 C-4.02 74 -2.04 74 0 74 C-0.495 75.485 -0.495 75.485 -1 77 C0.32 77.33 1.64 77.66 3 78 C3 78.66 3 79.32 3 80 C3.99 80 4.98 80 6 80 C6 80.66 6 81.32 6 82 C6.61875 82.103125 7.2375 82.20625 7.875 82.3125 C10 83 10 83 12 86 C6.06104244 84.66409757 1.89155139 82.2464038 -3.0703125 78.78125 C-4.66785278 77.69075919 -6.2658552 76.60094518 -7.86425781 75.51171875 C-9.11873718 74.65102783 -9.11873718 74.65102783 -10.39855957 73.77294922 C-14.83568937 70.74893002 -19.32322156 67.80146776 -23.8046875 64.84375 C-25.64227052 63.62551788 -27.4795088 62.4067656 -29.31640625 61.1875 C-32.12353636 59.32433862 -34.93156976 57.46262716 -37.74267578 55.60546875 C-40.51624088 53.77255349 -43.28582012 51.9337516 -46.0546875 50.09375 C-46.89627411 49.53957397 -47.73786072 48.98539795 -48.60494995 48.41442871 C-52.42069165 45.87109202 -55.92775548 43.45224088 -59 40 C-56.14783945 36.97246928 -53.22318944 34.6660075 -49.74609375 32.390625 C-48.2156543 31.38128906 -48.2156543 31.38128906 -46.65429688 30.3515625 C-45.06198242 29.31128906 -45.06198242 29.31128906 -43.4375 28.25 C-36.3063284 23.57586136 -29.28767743 18.81481992 -22.41772461 13.76318359 C-19.51746842 11.64810229 -16.56457763 9.65494029 -13.5625 7.6875 C-10.91700189 5.95084145 -8.30694337 4.23468944 -5.79296875 2.3125 C-3.86009929 0.89758902 -2.34007342 0.41787025 0 0 Z " fill="#E89B3F" transform="translate(99,47)"/>
<path d="M0 0 C5.12104809 2.05967428 9.67493065 5.42667515 14.078125 8.69921875 C19.87099806 12.94570777 25.81463729 16.92568431 31.8125 20.875 C39.65577595 26.06672246 47.39616343 31.34766676 55 36.8828125 C58.88303261 39.62318187 62.90350611 42.10033137 66.98828125 44.52734375 C69 46 69 46 70 49 C70.09753698 50.70142649 70.13817791 52.40639051 70.14526367 54.1105957 C70.15164352 55.15210281 70.15802338 56.19360992 70.16459656 57.26667786 C70.16570938 58.39168198 70.1668222 59.5166861 70.16796875 60.67578125 C70.17296135 62.4126545 70.17296135 62.4126545 70.17805481 64.18461609 C70.18312134 66.63666384 70.18546322 69.0887185 70.18530273 71.54077148 C70.18748518 75.28706282 70.20563297 79.03305782 70.22460938 82.77929688 C70.22754417 85.16145733 70.22952839 87.54361918 70.23046875 89.92578125 C70.23765427 91.04471268 70.24483978 92.1636441 70.25224304 93.31648254 C70.23678858 98.59565934 70.1619479 103.07470031 68 108 C67.67 108 67.34 108 67 108 C66.40658287 98.60719708 65.93220622 89.22705822 65.75390625 79.81640625 C65.73725922 78.97338959 65.72061218 78.13037292 65.70346069 77.2618103 C65.6371481 73.80799858 65.57418887 70.35422143 65.52319336 66.90014648 C65.48368679 64.33032667 65.43224426 61.76097096 65.37890625 59.19140625 C65.3704921 58.41027969 65.36207794 57.62915314 65.35340881 56.82435608 C65.26616797 53.03694182 65.15082782 51.22624173 63 48 C62.01 48 61.02 48 60 48 C60 46.68 60 45.36 60 44 C59.34 44 58.68 44 58 44 C58 43.34 58 42.68 58 42 C55.03 41.505 55.03 41.505 52 41 C52 40.01 52 39.02 52 38 C51.01 38 50.02 38 49 38 C47.97708657 37.02345092 46.98091206 36.01873035 46 35 C43.53092938 33.45425462 41.0079592 32.03165113 38.47265625 30.59765625 C35.94906467 28.96708918 34.08103295 27.15263838 32 25 C30.68252676 24.30251417 29.35085807 23.63040043 28 23 C27.34 22.34 26.68 21.68 26 21 C24.01643517 20.28591666 22.01684563 19.61382258 20 19 C20 18.34 20 17.68 20 17 C19.01 17 18.02 17 17 17 C17 16.01 17 15.02 17 14 C16.2575 13.9175 15.515 13.835 14.75 13.75 C11.47076121 12.85566215 10.32354246 11.40099388 8 9 C7.01 9 6.02 9 5 9 C4.67 7.68 4.34 6.36 4 5 C2.35 4.67 0.7 4.34 -1 4 C-1.33 3.01 -1.66 2.02 -2 1 C-1.34 0.67 -0.68 0.34 0 0 Z " fill="#952781" transform="translate(46,109)"/>
<path d="M0 0 C0 18.48 0 36.96 0 56 C-5 57 -5 57 -7.5168457 55.81933594 C-8.39429443 55.21379883 -9.27174316 54.60826172 -10.17578125 53.984375 C-11.16191406 53.31470703 -12.14804688 52.64503906 -13.1640625 51.95507812 C-14.72253906 50.86356445 -14.72253906 50.86356445 -16.3125 49.75 C-17.37597656 49.02232422 -18.43945312 48.29464844 -19.53515625 47.54492188 C-22.69928777 45.37626893 -25.84991374 43.18898282 -29 41 C-30.71101671 39.82634024 -32.42314001 38.65429094 -34.13671875 37.484375 C-37.76757611 35.00346545 -41.38747263 32.507519 -45 30 C-44.84667969 28.25073242 -44.84667969 28.25073242 -44 26 C-41.61425781 24.03637695 -41.61425781 24.03637695 -38.453125 21.98828125 C-37.60255524 21.42949532 -37.60255524 21.42949532 -36.73480225 20.85942078 C-34.91348463 19.66603906 -33.08231998 18.48890254 -31.25 17.3125 C-29.47054866 16.15558944 -27.69329543 14.99537533 -25.91662598 13.834198 C-24.73232621 13.06172507 -23.54603809 12.29229203 -22.35778809 11.52590942 C-19.29994462 9.5456908 -16.29805109 7.51680414 -13.34960938 5.37646484 C-12.76290466 4.95407028 -12.17619995 4.53167572 -11.57171631 4.09648132 C-9.95159016 2.92230132 -8.34214492 1.73342473 -6.73339844 0.54370117 C-4 -1 -4 -1 0 0 Z M-16 11 C-16 11.66 -16 12.32 -16 13 C-18.33214148 14.20628008 -20.49642139 15.1654738 -23 16 C-23 16.66 -23 17.32 -23 18 C-23.556875 18.061875 -24.11375 18.12375 -24.6875 18.1875 C-27.93794615 19.32954865 -29.61587372 21.55627057 -32 24 C-34.125 25.1875 -34.125 25.1875 -36 26 C-36.99 26.66 -37.98 27.32 -39 28 C-38.690625 28.598125 -38.38125 29.19625 -38.0625 29.8125 C-37 32 -37 32 -36 35 C-34.35 34.67 -32.7 34.34 -31 34 C-31 34.99 -31 35.98 -31 37 C-28.69 37.33 -26.38 37.66 -24 38 C-23.67 39.32 -23.34 40.64 -23 42 C-22.01 42 -21.02 42 -20 42 C-20 42.66 -20 43.32 -20 44 C-19.0409375 44.185625 -19.0409375 44.185625 -18.0625 44.375 C-17.381875 44.58125 -16.70125 44.7875 -16 45 C-15.67 45.66 -15.34 46.32 -15 47 C-13.515 47.495 -13.515 47.495 -12 48 C-10.29413425 49.62652316 -8.6222454 51.29006566 -7 53 C-4.33970233 52.24839143 -4.33970233 52.24839143 -2 50 C-1.25177278 46.56162896 -1.42044797 43.14842105 -1.51171875 39.64453125 C-1.52233086 38.11937141 -1.52233086 38.11937141 -1.53315735 36.56340027 C-1.56117082 33.31235516 -1.62392415 30.06302547 -1.6875 26.8125 C-1.71257379 24.61005089 -1.73538855 22.40757482 -1.75585938 20.20507812 C-1.8110199 14.80279904 -1.89471508 9.40152205 -2 4 C-7.27240431 4 -12.30273942 7.52681582 -16 11 Z " fill="#8F2E7E" transform="translate(192,167)"/>
<path d="M0 0 C3.20384036 1.51255063 6.095189 3.31078043 9.04296875 5.2734375 C10.02716797 5.92795898 11.01136719 6.58248047 12.02539062 7.25683594 C16.32248695 10.13528001 20.61716124 13.01714455 24.90380859 15.91113281 C26.86223755 17.2324006 28.82318788 18.54994545 30.78759766 19.86230469 C33.2015097 21.4776809 35.60258313 23.11028073 38 24.75 C38.71696045 25.22614746 39.4339209 25.70229492 40.17260742 26.19287109 C42.125 27.546875 42.125 27.546875 45 30 C45 31.32 45 32.64 45 34 C42.97143555 35.79589844 42.97143555 35.79589844 40.13671875 37.609375 C39.10353516 38.28226563 38.07035156 38.95515625 37.00585938 39.6484375 C35.91080078 40.34195313 34.81574219 41.03546875 33.6875 41.75 C31.56487737 43.11742132 29.44377565 44.48720647 27.32421875 45.859375 C26.27540527 46.53677734 25.2265918 47.21417969 24.14599609 47.91210938 C20.09072682 50.60345369 16.16529648 53.45050069 12.25317383 56.34472656 C7.27758112 60 7.27758112 60 3 60 C3.66 58.35 4.32 56.7 5 55 C5.99 55 6.98 55 8 55 C8 54.34 8 53.68 8 53 C8.66 53 9.32 53 10 53 C10.33 52.34 10.66 51.68 11 51 C13.06640625 50.1484375 13.06640625 50.1484375 15.5625 49.375 C16.38878906 49.11460938 17.21507812 48.85421875 18.06640625 48.5859375 C18.70449219 48.39257812 19.34257812 48.19921875 20 48 C19.67 47.01 19.34 46.02 19 45 C19.99 45 20.98 45 22 45 C22 44.34 22 43.68 22 43 C23.485 42.505 23.485 42.505 25 42 C25.33 41.34 25.66 40.68 26 40 C28.04524321 39.40494001 30.09333957 39.04533219 32.1875 38.66015625 C33.0846875 38.33337891 33.0846875 38.33337891 34 38 C34.33 37.01 34.66 36.02 35 35 C35.99 34.34 36.98 33.68 38 33 C37.72965366 30.56282742 37.72965366 30.56282742 37 28 C36.01 27.34 35.02 26.68 34 26 C33.34 26.99 32.68 27.98 32 29 C32 27.68 32 26.36 32 25 C29.69 25.33 27.38 25.66 25 26 C25 24.35 25 22.7 25 21 C24.34 20.67 23.68 20.34 23 20 C23 19.34 23 18.68 23 18 C21.9275 17.773125 20.855 17.54625 19.75 17.3125 C15.49470861 15.82314801 14.64421291 14.49718482 12 11 C8.39120208 8.85007783 5.15191293 7.61057543 1 7 C1.66 6.34 2.32 5.68 3 5 C2.34 4.34 1.68 3.68 1 3 C0.67 2.01 0.34 1.02 0 0 Z " fill="#CD3972" transform="translate(146,55)"/>
<path d="M0 0 C2.9375 0.8125 2.9375 0.8125 6 2 C6.33 2.99 6.66 3.98 7 5 C6.01 5 5.02 5 4 5 C2.34028901 9.97913298 2.83087209 14.81610466 3.5625 19.9375 C4.06920466 23.57592096 3.74997851 26.75569495 3.25390625 30.37890625 C2.83152062 34.7392256 2.98230321 39.09691903 3.0625 43.47265625 C3 47 3 47 2.51586914 50.40600586 C1.75956829 56.26123964 1.76684331 62.13520495 1.68359375 68.03125 C1.66281265 69.26290894 1.64203156 70.49456787 1.62062073 71.7635498 C1.55553812 75.67564626 1.49643307 79.58780656 1.4375 83.5 C1.39476101 86.16147345 1.35065998 88.82292217 1.30664062 91.484375 C1.19989931 97.98951698 1.09805821 104.49472165 1 111 C0.34 111 -0.32 111 -1 111 C-1.0233302 96.67505574 -1.04091336 82.35011441 -1.05181217 68.02515507 C-1.05704174 61.3742647 -1.06414072 54.72339214 -1.07543945 48.07250977 C-1.08626571 41.65997123 -1.09227628 35.24744496 -1.09487724 28.83489799 C-1.09673197 26.38235722 -1.10035347 23.92981715 -1.10573006 21.47728157 C-1.11293702 18.05523323 -1.11399109 14.63323629 -1.11352539 11.21118164 C-1.11712067 10.18619568 -1.12071594 9.16120972 -1.12442017 8.10516357 C-1.1230455 7.17823196 -1.12167084 6.25130035 -1.12025452 5.29627991 C-1.12117631 4.48602387 -1.1220981 3.67576784 -1.12304783 2.8409586 C-1 1 -1 1 0 0 Z " fill="#B0348A" transform="translate(39,105)"/>
<path d="M0 0 C3.63 0 7.26 0 11 0 C11.95952319 3.83809275 12.11490298 6.80212039 12.09765625 10.734375 C12.09443359 12.02988281 12.09121094 13.32539062 12.08789062 14.66015625 C12.07953598 16.02343817 12.07107104 17.38671942 12.0625 18.75 C12.05748168 20.12890465 12.05291935 21.50781104 12.04882812 22.88671875 C12.03704093 26.25785659 12.02058635 29.62890628 12 33 C13.98 32.505 13.98 32.505 16 32 C14.71937515 33.7074998 13.38232443 35.37373596 12 37 C11.34 37 10.68 37 10 37 C10 25.12 10 13.24 10 1 C7.03 1 4.06 1 1 1 C1 31.03 1 61.06 1 92 C3.97 92 6.94 92 10 92 C9.98952637 90.84999512 9.97905273 89.69999023 9.96826172 88.51513672 C9.93195387 84.23245377 9.90906033 79.94978433 9.89013672 75.66699219 C9.88010369 73.81638294 9.86647414 71.96578945 9.84912109 70.11523438 C9.82475392 67.4491791 9.81348977 64.78333416 9.8046875 62.1171875 C9.79436493 61.29507782 9.78404236 60.47296814 9.77340698 59.62594604 C9.7725139 55.01244664 10.23443276 51.34366196 12 47 C13.28340375 50.85021125 12.84476146 54.26995115 12.5625 58.25 C12.00086908 67.07488588 11.92983198 75.85562958 12.03735352 84.69628906 C12.04565186 85.6344043 12.0539502 86.57251953 12.0625 87.5390625 C12.07410156 88.37646973 12.08570313 89.21387695 12.09765625 90.07666016 C12 92 12 92 11 93 C9.14712498 93.07226502 7.29166122 93.0838122 5.4375 93.0625 C3.91962891 93.04896484 3.91962891 93.04896484 2.37109375 93.03515625 C1.58863281 93.02355469 0.80617188 93.01195312 0 93 C-1.11500022 88.52765175 -1.14123072 84.14824198 -1.12939453 79.56958008 C-1.13114685 78.73325546 -1.13289917 77.89693085 -1.13470459 77.03526306 C-1.13909432 74.27999782 -1.13619605 71.52479711 -1.1328125 68.76953125 C-1.13348617 66.85332731 -1.13445673 64.93712345 -1.13571167 63.0209198 C-1.13718458 59.01043888 -1.13504643 54.99998027 -1.13037109 50.98950195 C-1.12466249 45.84105825 -1.12796253 40.69266655 -1.13394356 35.54422474 C-1.13755029 31.59038396 -1.13641026 27.6365556 -1.13381577 23.68271446 C-1.13314741 21.7836373 -1.13397175 19.88455903 -1.13629532 17.98548317 C-1.13882492 15.33770364 -1.1349774 12.69000947 -1.12939453 10.04223633 C-1.13141876 9.25311859 -1.13344299 8.46400085 -1.13552856 7.65097046 C-1.11426664 2.22853327 -1.11426664 2.22853327 0 0 Z " fill="#C4C3C3" transform="translate(512,106)"/>
<path d="M0 0 C0.53915039 0.24451904 1.07830078 0.48903809 1.63378906 0.7409668 C1.30378906 1.7309668 0.97378906 2.7209668 0.63378906 3.7409668 C-1.01621094 3.7409668 -2.66621094 3.7409668 -4.36621094 3.7409668 C-4.36621094 4.4009668 -4.36621094 5.0609668 -4.36621094 5.7409668 C-6.15917969 7.0378418 -6.15917969 7.0378418 -8.55371094 8.4909668 C-12.71549158 11.15608185 -15.44321012 13.78077215 -18.36621094 17.7409668 C-19.35621094 17.4109668 -20.34621094 17.0809668 -21.36621094 16.7409668 C-21.36621094 17.4009668 -21.36621094 18.0609668 -21.36621094 18.7409668 C-22.12933594 19.1947168 -22.89246094 19.6484668 -23.67871094 20.1159668 C-26.43231781 21.5467232 -26.43231781 21.5467232 -27.92871094 23.8659668 C-29.68048586 26.15089061 -30.59961635 26.2379496 -33.36621094 26.7409668 C-34.71418523 27.37751021 -36.05217818 28.03702068 -37.36621094 28.7409668 C-36.87121094 29.3390918 -36.37621094 29.9372168 -35.86621094 30.5534668 C-34.36621094 32.7409668 -34.36621094 32.7409668 -34.36621094 35.7409668 C-37.82546257 34.4917926 -40.51314297 33.06568885 -43.36621094 30.7409668 C-43.21289062 28.99169922 -43.21289062 28.99169922 -42.36621094 26.7409668 C-39.98046875 24.77734375 -39.98046875 24.77734375 -36.81933594 22.72924805 C-35.96876617 22.17046211 -35.96876617 22.17046211 -35.10101318 21.60038757 C-33.27969556 20.40700586 -31.44853092 19.22986933 -29.61621094 18.0534668 C-27.8367596 16.89655624 -26.05950636 15.73634213 -24.28283691 14.57516479 C-23.09853715 13.80269186 -21.91224902 13.03325883 -20.72399902 12.26687622 C-17.66615555 10.2866576 -14.66426203 8.25777094 -11.71582031 6.11743164 C-11.1291156 5.69503708 -10.54241089 5.27264252 -9.93792725 4.83744812 C-8.3178011 3.66326812 -6.70835586 2.47439153 -5.09960938 1.28466797 C-2.36621094 -0.2590332 -2.36621094 -0.2590332 0 0 Z " fill="#7C3073" transform="translate(190.3662109375,166.259033203125)"/>
<path d="M0 0 C2.375 1.5625 2.375 1.5625 4 4 C4.56288002 7.94016013 4.60396028 10.05782196 2.4375 13.4375 C-0.94217804 15.60396028 -3.05983987 15.56288002 -7 15 C-9.4375 13.4375 -9.4375 13.4375 -11 11 C-11.5625 7.5 -11.5625 7.5 -11 4 C-7.69532025 0.20933794 -4.96286146 -0.84474238 0 0 Z " fill="#E8E8E8" transform="translate(784,107)"/>
<path d="M0 0 C2.375 1.5 2.375 1.5 4 4 C4.58428517 6.9631605 4.39344818 8.90159561 4 12 C2.4375 14 2.4375 14 0 15 C-6.0023753 15.63182898 -6.0023753 15.63182898 -8.875 13.8125 C-10.36816938 11.40683822 -10.8675026 9.84869415 -11 7 C-8.50204817 0.81459548 -6.7126374 -0.67126374 0 0 Z " fill="#E7E7E7" transform="translate(599,107)"/>
<path d="M0 0 C4.01250249 2.3547534 7.86156106 4.95960004 11.72753906 7.54614258 C13.61853088 8.80818254 15.51961812 10.05385313 17.421875 11.29882812 C18.62825304 12.10058702 19.8340041 12.90329027 21.0390625 13.70703125 C22.13428223 14.4338208 23.22950195 15.16061035 24.35791016 15.90942383 C26.85398972 17.88446811 27.93304945 19.05529951 29 22 C24.36560596 21.37373053 24.36560596 21.37373053 22.59375 19.5625 C20.75398141 17.7588053 19.23444246 17.14628347 16.8125 16.3125 C16.09707031 16.06113281 15.38164062 15.80976562 14.64453125 15.55078125 C14.10183594 15.36902344 13.55914062 15.18726562 13 15 C13 14.34 13 13.68 13 13 C12.34 13 11.68 13 11 13 C11 12.01 11 11.02 11 10 C10.34 9.7525 9.68 9.505 9 9.25 C6.53716668 8.22381945 4.33191637 7.08887089 2 5.8125 C-0.64434887 4.47787571 -1.79183 3.995374 -4.8125 4.0625 C-7.04448951 4.85879417 -7.04448951 4.85879417 -8.5 6.5 C-10.49901075 8.49901075 -12.25393258 8.62890981 -15 9 C-15 9.66 -15 10.32 -15 11 C-16.98 11.99 -16.98 11.99 -19 13 C-19.99 12.34 -20.98 11.68 -22 11 C-19.7524911 9.37145746 -17.50215838 7.74709026 -15.25 6.125 C-14.29867187 5.43470703 -14.29867187 5.43470703 -13.328125 4.73046875 C-4.56517444 -1.56790197 -4.56517444 -1.56790197 0 0 Z " fill="#E2764E" transform="translate(119,36)"/>
<path d="M0 0 C-2.76933363 2.91515111 -5.59533459 5.24276315 -8.921875 7.49609375 C-9.86546875 8.13740234 -10.8090625 8.77871094 -11.78125 9.43945312 C-13.25078125 10.42848633 -13.25078125 10.42848633 -14.75 11.4375 C-15.71421875 12.09298828 -16.6784375 12.74847656 -17.671875 13.42382812 C-19.56199935 14.70402784 -21.4575494 15.97625974 -23.35888672 17.23974609 C-25.02988902 18.3534387 -26.68952018 19.484555 -28.33251953 20.63916016 C-29.02458496 21.11015137 -29.71665039 21.58114258 -30.4296875 22.06640625 C-31.01991699 22.47963135 -31.61014648 22.89285645 -32.21826172 23.31860352 C-34 24 -34 24 -36.28808594 23.44311523 C-39.9580063 21.78461004 -41.73544091 20.39683864 -44 17 C-42.35 17 -40.7 17 -39 17 C-39 17.66 -39 18.32 -39 19 C-36.69 19.33 -34.38 19.66 -32 20 C-32 19.34 -32 18.68 -32 18 C-30.20963542 17.05598958 -28.41927083 16.11197917 -26.62890625 15.16796875 C-24.67732013 14.00980201 -24.67732013 14.00980201 -24 11 C-23.34 11 -22.68 11 -22 11 C-21.67 10.34 -21.34 9.68 -21 9 C-20.01 9.33 -19.02 9.66 -18 10 C-18 9.34 -18 8.68 -18 8 C-17.195625 7.71125 -16.39125 7.4225 -15.5625 7.125 C-12.8673532 6.26737432 -12.8673532 6.26737432 -12 4 C-5.68224299 -1.34579439 -5.68224299 -1.34579439 0 0 Z " fill="#D14B4F" transform="translate(151,115)"/>
<path d="M0 0 C0.66 0 1.32 0 2 0 C2.99 2.31 3.98 4.62 5 7 C5.33 7 5.66 7 6 7 C6.05080039 13.72604133 6.08577579 20.45203298 6.10986328 27.17822266 C6.11990733 29.46535084 6.13354508 31.75246623 6.15087891 34.03955078 C6.17519708 37.33108686 6.18649924 40.62245282 6.1953125 43.9140625 C6.20563507 44.93303619 6.21595764 45.95200989 6.22659302 47.00186157 C6.22739081 52.0747036 6.03297852 56.25169376 4 61 C3.67 61 3.34 61 3 61 C2.14608527 47.32700133 1.71783146 33.6712943 1.44775391 19.97558594 C1.39609135 17.41331291 1.33896175 14.85120533 1.28125 12.2890625 C1.26088684 11.12511459 1.26088684 11.12511459 1.2401123 9.93765259 C1.15988688 6.47089927 0.92296096 3.33843449 0 0 Z " fill="#A11B81" transform="translate(110,156)"/>
<path d="M0 0 C0.763125 0.20625 1.52625 0.4125 2.3125 0.625 C2.3125 1.615 2.3125 2.605 2.3125 3.625 C3.6325 3.955 4.9525 4.285 6.3125 4.625 C6.3125 5.285 6.3125 5.945 6.3125 6.625 C7.7665625 7.0271875 7.7665625 7.0271875 9.25 7.4375 C10.260625 7.829375 11.27125 8.22125 12.3125 8.625 C12.6425 9.615 12.9725 10.605 13.3125 11.625 C15.2925 11.625 17.2725 11.625 19.3125 11.625 C18.9825 12.615 18.6525 13.605 18.3125 14.625 C19.6325 14.955 20.9525 15.285 22.3125 15.625 C22.3125 16.285 22.3125 16.945 22.3125 17.625 C23.3025 17.625 24.2925 17.625 25.3125 17.625 C25.3125 18.285 25.3125 18.945 25.3125 19.625 C25.93125 19.728125 26.55 19.83125 27.1875 19.9375 C29.3125 20.625 29.3125 20.625 31.3125 23.625 C25.14137606 22.27175486 20.77647635 19.58737908 15.625 16 C14.04038554 14.91924011 12.45575005 13.83851105 10.87109375 12.7578125 C9.71456299 11.96165527 9.71456299 11.96165527 8.53466797 11.14941406 C5.43958677 9.02617884 2.31504246 6.9501114 -0.8125 4.875 C-2.4375 3.79166667 -4.0625 2.70833333 -5.6875 1.625 C-2.6875 -0.375 -2.6875 -0.375 0 0 Z " fill="#DC7C41" transform="translate(79.6875,109.375)"/>
<path d="M0 0 C0.99 0 1.98 0 3 0 C3 0.99 3 1.98 3 3 C5.31 3.33 7.62 3.66 10 4 C10.33 5.32 10.66 6.64 11 8 C11.99 8 12.98 8 14 8 C14 8.66 14 9.32 14 10 C16.475 10.495 16.475 10.495 19 11 C19 11.66 19 12.32 19 13 C19.5775 13.0825 20.155 13.165 20.75 13.25 C23.62131472 14.20710491 24.8743794 15.8743794 27 18 C28.3303125 18.5259375 28.3303125 18.5259375 29.6875 19.0625 C30.450625 19.371875 31.21375 19.68125 32 20 C32.495 21.485 32.495 21.485 33 23 C27.01086599 22.63389306 23.5157806 19.90169295 18.875 16.4375 C17.37462631 15.3463785 15.87331767 14.25654151 14.37109375 13.16796875 C13.63487793 12.63091309 12.89866211 12.09385742 12.14013672 11.54052734 C7.52380374 8.21756806 2.75722511 5.11648659 -2 2 C-1.34 1.34 -0.68 0.68 0 0 Z " fill="#7E3075" transform="translate(158,201)"/>
<path d="M0 0 C0 3 0 3 -2.3125 5.6875 C-5 8 -5 8 -8 8 C-8 8.66 -8 9.32 -8 10 C-8.54269531 10.24234375 -9.08539063 10.4846875 -9.64453125 10.734375 C-13.82917326 12.69474783 -16.33798622 14.14008002 -19 18 C-20.9375 18.875 -20.9375 18.875 -23 19 C-24.35117459 18.37027827 -25.68755917 17.70690967 -27 17 C-25.92621094 16.26394531 -24.85242188 15.52789062 -23.74609375 14.76953125 C-22.30987201 13.78388888 -20.87367544 12.79820984 -19.4375 11.8125 C-18.73302734 11.32974609 -18.02855469 10.84699219 -17.30273438 10.34960938 C-16.60341797 9.86943359 -15.90410156 9.38925781 -15.18359375 8.89453125 C-14.48347168 8.4145166 -13.78334961 7.93450195 -13.06201172 7.43994141 C-11.08753267 6.0611257 -9.15645927 4.63420903 -7.22265625 3.19921875 C-4.45729444 1.31206881 -3.11962285 0.62883669 0 0 Z " fill="#E88242" transform="translate(99,47)"/>
<path d="M0 0 C0.33 0 0.66 0 1 0 C0.97557327 0.75897583 0.95114655 1.51795166 0.92597961 2.29992676 C0.70489154 9.4786286 0.53777699 16.6556649 0.43006611 23.83689117 C0.372823 27.52848839 0.29531051 31.21725753 0.17016602 34.90722656 C0.04997843 38.47366195 -0.01525151 42.03739263 -0.04364967 45.60569763 C-0.07365286 47.61829053 -0.15943299 49.62980422 -0.2462616 51.64074707 C-0.32259693 58.80161527 -0.32259693 58.80161527 3.48690796 64.5612793 C6.44547488 66.73806718 6.44547488 66.73806718 9.53385925 68.46130371 C12 70 12 70 13 73 C9.21730051 71.6257099 6.06761995 69.8996556 2.75 67.625 C1.87859375 67.03976563 1.0071875 66.45453125 0.109375 65.8515625 C-2.1440392 63.87356559 -2.66488334 62.92582625 -3 60 C-2.34 60 -1.68 60 -1 60 C-1.00222061 59.30731018 -1.00444122 58.61462036 -1.00672913 57.90093994 C-1.0288337 50.69861364 -1.04392829 43.49629696 -1.05493164 36.29394531 C-1.05939946 33.60513148 -1.06636119 30.91634118 -1.07543945 28.22753906 C-1.08755371 24.3652275 -1.09323945 20.50295208 -1.09765625 16.640625 C-1.10539818 14.83419525 -1.10539818 14.83419525 -1.11329651 12.99127197 C-1.11340981 11.30998199 -1.11340981 11.30998199 -1.11352539 9.59472656 C-1.115746 8.60877502 -1.11796661 7.62282349 -1.12025452 6.60699463 C-1.01134079 4.2458566 -0.67399991 2.25666764 0 0 Z " fill="#BF2182" transform="translate(41,156)"/>
<path d="M0 0 C0.33 0 0.66 0 1 0 C1 2.64 1 5.28 1 8 C17.17 8 33.34 8 50 8 C49.67 9.65 49.34 11.3 49 13 C48.34 13.33 47.68 13.66 47 14 C47.33 12.68 47.66 11.36 48 10 C47.41340103 10.00222061 46.82680206 10.00444122 46.22242737 10.00672913 C40.13974616 10.0287821 34.05707623 10.04390664 27.97436523 10.05493164 C25.70157409 10.05997325 23.4287862 10.06680637 21.15600586 10.07543945 C17.89696449 10.08751261 14.63796583 10.09322987 11.37890625 10.09765625 C10.35599991 10.10281754 9.33309357 10.10797882 8.27919006 10.11329651 C7.33829025 10.11337204 6.39739044 10.11344757 5.42797852 10.11352539 C4.59524918 10.115746 3.76251984 10.11796661 2.90455627 10.12025452 C1 10 1 10 0 9 C-0.07179964 7.48071962 -0.08392007 5.95832518 -0.0625 4.4375 C-0.05347656 3.61121094 -0.04445313 2.78492187 -0.03515625 1.93359375 C-0.02355469 1.29550781 -0.01195312 0.65742187 0 0 Z " fill="#ADACAC" transform="translate(690,111)"/>
<path d="M0 0 C5.70590035 0.86729685 9.48295042 3.63232961 14.1875 6.8125 C15.41629883 7.61397461 15.41629883 7.61397461 16.66992188 8.43164062 C17.45302734 8.95564453 18.23613281 9.47964844 19.04296875 10.01953125 C19.75477295 10.49495361 20.46657715 10.97037598 21.19995117 11.46020508 C23.17334064 13.14827877 24.01245907 14.62035628 25 17 C20.36560596 16.37373053 20.36560596 16.37373053 18.59375 14.5625 C16.75398141 12.7588053 15.23444246 12.14628347 12.8125 11.3125 C12.09707031 11.06113281 11.38164062 10.80976562 10.64453125 10.55078125 C10.10183594 10.36902344 9.55914062 10.18726563 9 10 C9 9.34 9 8.68 9 8 C8.34 8 7.68 8 7 8 C7 7.01 7 6.02 7 5 C6.21625 4.731875 5.4325 4.46375 4.625 4.1875 C2 3 2 3 0 0 Z " fill="#E0585E" transform="translate(123,41)"/>
<path d="M0 0 C1.32 0.33 2.64 0.66 4 1 C3.505 1.7425 3.505 1.7425 3 2.5 C1.120957 7.19760751 1.86309885 12.04169197 2.5625 16.9375 C3.06920466 20.57592096 2.74997851 23.75569495 2.25390625 27.37890625 C1.93989511 30.62046744 1.96872438 33.80636009 2 37.0625 C2.04420555 42.16271555 1.80513231 46.96792306 1 52 C0.67 52 0.34 52 0 52 C0 34.84 0 17.68 0 0 Z " fill="#A52383" transform="translate(40,108)"/>
<path d="M0 0 C0.99 0 1.98 0 3 0 C2.74065388 3.53822207 2.28146753 4.74557902 -0.3984375 7.16796875 C-1.38070312 7.83441406 -2.36296875 8.50085938 -3.375 9.1875 C-4.35210937 9.86167969 -5.32921875 10.53585938 -6.3359375 11.23046875 C-7.21507812 11.81441406 -8.09421875 12.39835937 -9 13 C-9.99 13.66 -10.98 14.32 -12 15 C-13.32 15 -14.64 15 -16 15 C-15.34 13.35 -14.68 11.7 -14 10 C-13.01 10 -12.02 10 -11 10 C-11 9.34 -11 8.68 -11 8 C-10.34 8 -9.68 8 -9 8 C-8.67 7.34 -8.34 6.68 -8 6 C-5.93359375 5.1484375 -5.93359375 5.1484375 -3.4375 4.375 C-2.61121094 4.11460938 -1.78492188 3.85421875 -0.93359375 3.5859375 C-0.29550781 3.39257812 0.34257812 3.19921875 1 3 C0.67 2.01 0.34 1.02 0 0 Z " fill="#D03C5E" transform="translate(165,100)"/>
<path d="M0 0 C3.63 0 7.26 0 11 0 C11.95952319 3.83809275 12.11490298 6.80212039 12.09765625 10.734375 C12.09443359 12.02988281 12.09121094 13.32539062 12.08789062 14.66015625 C12.07953598 16.02343817 12.07107104 17.38671942 12.0625 18.75 C12.05748168 20.12890465 12.05291935 21.50781104 12.04882812 22.88671875 C12.03704093 26.25785659 12.02058635 29.62890628 12 33 C13.98 32.505 13.98 32.505 16 32 C14.71937515 33.7074998 13.38232443 35.37373596 12 37 C11.34 37 10.68 37 10 37 C10 25.12 10 13.24 10 1 C6.7 1 3.4 1 0 1 C0 0.67 0 0.34 0 0 Z " fill="#B6B5B5" transform="translate(512,106)"/>
<path d="M0 0 C3.37462715 0.54723683 5.08235 1.0549 8 3 C9.02812403 8.36199003 9.09537454 13.55091777 8.87890625 19 C8.85529526 19.7211499 8.83168427 20.4422998 8.80735779 21.18530273 C8.73163787 23.45711624 8.6472284 25.72850651 8.5625 28 C8.50918712 29.55336567 8.4564476 31.10675113 8.40429688 32.66015625 C8.2761494 36.44036502 8.14021558 40.22022041 8 44 C7.67 44 7.34 44 7 44 C6.97494385 43.00145996 6.9498877 42.00291992 6.92407227 40.97412109 C6.82951692 37.25036981 6.729416 33.52678426 6.62768555 29.80322266 C6.58451795 28.19518933 6.54283099 26.58711552 6.50268555 24.97900391 C6.44453994 22.66035795 6.38097609 20.34191239 6.31640625 18.0234375 C6.29969376 17.31069672 6.28298126 16.59795593 6.26576233 15.86361694 C6.14757211 11.8326172 5.92378193 7.93287394 5 4 C3.06616713 2.69934079 3.06616713 2.69934079 1 2 C0.67 1.34 0.34 0.68 0 0 Z " fill="#8B1E75" transform="translate(107,152)"/>
<path d="M0 0 C0.53625 0.2475 1.0725 0.495 1.625 0.75 C0.305 2.4 -1.015 4.05 -2.375 5.75 C-2.045 6.348125 -1.715 6.94625 -1.375 7.5625 C-0.375 9.75 -0.375 9.75 -0.375 12.75 C-3.83425163 11.5008258 -6.52193203 10.07472205 -9.375 7.75 C-9.25 6 -9.25 6 -8.375 3.75 C-3.38130517 -0.35592686 -3.38130517 -0.35592686 0 0 Z " fill="#773575" transform="translate(156.375,189.25)"/>
<path d="M0 0 C0.66 0.33 1.32 0.66 2 1 C-1.29207812 5.93811718 -4.724035 7.62581575 -10 10 C-12.97 8.02 -15.94 6.04 -19 4 C-17.68 3.67 -16.36 3.34 -15 3 C-14.67 3.66 -14.34 4.32 -14 5 C-11.67843403 5.40729228 -9.3431213 5.74438677 -7 6 C-7 5.34 -7 4.68 -7 4 C-1.7265625 0.77734375 -1.7265625 0.77734375 0 0 Z " fill="#D46349" transform="translate(126,129)"/>
<path d="M0 0 C4.15207294 2.00618637 7.90997071 4.4593379 11.75 7 C12.44738281 7.45117188 13.14476562 7.90234375 13.86328125 8.3671875 C15.61243603 9.52416268 17.31123649 10.75653234 19 12 C19 12.66 19 13.32 19 14 C14.48297667 13.57652906 11.62369007 11.56708419 7.9375 9.14453125 C5.66485006 7.80201828 3.62362449 7.2459648 1 7 C1.66 6.34 2.32 5.68 3 5 C2.34 4.34 1.68 3.68 1 3 C0.67 2.01 0.34 1.02 0 0 Z " fill="#D54564" transform="translate(146,55)"/>
<path d="M0 0 C2.97 0.99 5.94 1.98 9 3 C9 3.66 9 4.32 9 5 C9.78375 5.061875 10.5675 5.12375 11.375 5.1875 C12.674375 5.5896875 12.674375 5.5896875 14 6 C15.3125 8.5625 15.3125 8.5625 16 11 C10.34115395 9.54901383 5.48351309 6.70951715 1 3 C0.67 2.01 0.34 1.02 0 0 Z " fill="#E59545" transform="translate(61,100)"/>
<path d="M0 0 C2.76318809 1.41529146 4.49617987 3.01658875 6.5625 5.3125 C6.2325 5.6425 5.9025 5.9725 5.5625 6.3125 C6.5525 6.9725 7.5425 7.6325 8.5625 8.3125 C8.2325 9.3025 7.9025 10.2925 7.5625 11.3125 C5.5 12 5.5 12 3.5625 12.3125 C3.5625 10.6625 3.5625 9.0125 3.5625 7.3125 C2.9025 6.9825 2.2425 6.6525 1.5625 6.3125 C1.5625 5.6525 1.5625 4.9925 1.5625 4.3125 C-0.7475 3.6525 -3.0575 2.9925 -5.4375 2.3125 C-5.4375 1.6525 -5.4375 0.9925 -5.4375 0.3125 C-2.4375 -0.6875 -2.4375 -0.6875 0 0 Z " fill="#D23164" transform="translate(167.4375,68.6875)"/>
<path d="M0 0 C0.33 0 0.66 0 1 0 C1.33 4.29 1.66 8.58 2 13 C-3 12 -3 12 -5 10 C-5 9.01 -5 8.02 -5 7 C-6.65 7 -8.3 7 -10 7 C-10 6.67 -10 6.34 -10 6 C-4.25 5 -4.25 5 -2 5 C-1.34 3.35 -0.68 1.7 0 0 Z " fill="#DF198D" transform="translate(112,253)"/>
<path d="M0 0 C1.32 0.33 2.64 0.66 4 1 C3.67 1.66 3.34 2.32 3 3 C4.32 3.33 5.64 3.66 7 4 C7 4.66 7 5.32 7 6 C7.99 6 8.98 6 10 6 C10 6.66 10 7.32 10 8 C10.928125 8.1546875 10.928125 8.1546875 11.875 8.3125 C14 9 14 9 16 12 C9.91135097 10.70454276 4.68547734 8.17549341 0 4 C0 2.66666667 0 1.33333333 0 0 Z " fill="#DC7246" transform="translate(95,121)"/>
<path d="M0 0 C5.42018581 2.19737263 9.75458573 5.06132612 13 10 C10 10 10 10 7.9375 8.9375 C7.298125 8.628125 6.65875 8.31875 6 8 C5.01 8.495 5.01 8.495 4 9 C4 7.68 4 6.36 4 5 C2.35 4.67 0.7 4.34 -1 4 C-1.33 3.01 -1.66 2.02 -2 1 C-1.34 0.67 -0.68 0.34 0 0 Z " fill="#8F2677" transform="translate(46,109)"/>
<path d="M0 0 C0.33 0.33 0.66 0.66 1 1 C-2.02272532 4.25524265 -5.25718301 6.61820737 -9 9 C-9.66 8.67 -10.32 8.34 -11 8 C-10.67 6.35 -10.34 4.7 -10 3 C-9.01 2.67 -8.02 2.34 -7 2 C-6.67 1.34 -6.34 0.68 -6 0 C-3 -1 -3 -1 0 0 Z " fill="#C32961" transform="translate(178,95)"/>
<path d="M0 0 C3.10025941 1.11953812 5.56688174 2.92212123 8.25 4.8125 C5.83959839 6.34940745 4.74917715 6.91002136 1.890625 6.3515625 C1.10171875 6.04992188 0.3128125 5.74828125 -0.5 5.4375 C-1.69882813 4.99277344 -1.69882813 4.99277344 -2.921875 4.5390625 C-3.52515625 4.29929687 -4.1284375 4.05953125 -4.75 3.8125 C-4.42 2.8225 -4.09 1.8325 -3.75 0.8125 C-1.75 -0.1875 -1.75 -0.1875 0 0 Z " fill="#E5715B" transform="translate(116.75,35.1875)"/>
<path d="M0 0 C0.99 0 1.98 0 3 0 C3 0.99 3 1.98 3 3 C0.98828125 4.7890625 0.98828125 4.7890625 -1.6875 6.625 C-2.55761719 7.23601562 -3.42773438 7.84703125 -4.32421875 8.4765625 C-6.96566896 9.98045386 -9.00854563 10.60113942 -12 11 C-12 10.34 -12 9.68 -12 9 C-11.34 9 -10.68 9 -10 9 C-10 8.34 -10 7.68 -10 7 C-9.36191406 6.66226563 -8.72382813 6.32453125 -8.06640625 5.9765625 C-7.24011719 5.53054687 -6.41382813 5.08453125 -5.5625 4.625 C-4.32693359 3.96371094 -4.32693359 3.96371094 -3.06640625 3.2890625 C-0.86533422 2.16581441 -0.86533422 2.16581441 0 0 Z " fill="#C6346F" transform="translate(188,86)"/>
<path d="M0 0 C3.89304473 0.56601005 6.49542487 1.6798 9.75 3.875 C10.52859375 4.38804688 11.3071875 4.90109375 12.109375 5.4296875 C14 7 14 7 15 10 C11.13518578 8.61423779 8.03192572 6.81080359 4.6875 4.4375 C3.80449219 3.81746094 2.92148438 3.19742188 2.01171875 2.55859375 C1.34785156 2.04425781 0.68398437 1.52992187 0 1 C0 0.67 0 0.34 0 0 Z " fill="#D8645F" transform="translate(123,41)"/>
<path d="M0 0 C0 0.66 0 1.32 0 2 C-2.63892176 3.78305524 -4.97178863 4.99059621 -8 6 C-8 6.66 -8 7.32 -8 8 C-11.46153846 11 -11.46153846 11 -14 11 C-13.34 9.35 -12.68 7.7 -12 6 C-11.01 6 -10.02 6 -9 6 C-9 5.34 -9 4.68 -9 4 C-8.34 4 -7.68 4 -7 4 C-6.67 3.34 -6.34 2.68 -6 2 C-3.85118612 0.75230162 -2.50320403 0 0 0 Z " fill="#DC4366" transform="translate(163,104)"/>
<path d="M0 0 C0.33 0.66 0.66 1.32 1 2 C-7.65782493 8.28116711 -7.65782493 8.28116711 -11 10 C-11.66 9.67 -12.32 9.34 -13 9 C-5.13551402 0.91705607 -5.13551402 0.91705607 0 0 Z " fill="#E98353" transform="translate(99,47)"/>
<path d="M0 0 C4.4941255 1.49804183 8.48754934 3.81802185 12 7 C12.33 7.99 12.66 8.98 13 10 C8.5058745 8.50195817 4.51245066 6.18197815 1 3 C0.67 2.01 0.34 1.02 0 0 Z " fill="#C82985" transform="translate(41,219)"/>
<path d="M0 0 C4.67105792 1.55701931 8.08705685 4.08447373 12 7 C10.23046875 7.640625 10.23046875 7.640625 8 8 C6.11328125 7.109375 6.11328125 7.109375 4.3125 5.75 C3.40951172 5.09257812 3.40951172 5.09257812 2.48828125 4.421875 C1 3 1 3 0 0 Z " fill="#CD2B87" transform="translate(78,244)"/>
<path d="M0 0 C2.64 0 5.28 0 8 0 C7.25 1.9375 7.25 1.9375 6 4 C4.0625 4.625 4.0625 4.625 2 5 C1.01 5.66 0.02 6.32 -1 7 C0.875 3.125 0.875 3.125 2 2 C1.34 1.34 0.68 0.68 0 0 Z " fill="#83327D" transform="translate(155,188)"/>
<path d="M0 0 C-1.55603771 3.81936528 -3.95604931 6.26044438 -7 9 C-7.66 9 -8.32 9 -9 9 C-7.45665977 5.21180126 -4.44676575 0 0 0 Z " fill="#CECDCD" transform="translate(633,138)"/>
<path d="M0 0 C3.93673644 1.31224548 6.22719294 2.91910327 9 6 C6.69 5.67 4.38 5.34 2 5 C1.34 3.35 0.68 1.7 0 0 Z " fill="#892078" transform="translate(93,142)"/>
<path d="M0 0 C3.95371299 0.56481614 6.71675094 1.71996593 10 4 C10.33 4.66 10.66 5.32 11 6 C10.0925 5.690625 9.185 5.38125 8.25 5.0625 C5.1871103 3.98404721 5.1871103 3.98404721 2.6875 3.5625 C2.130625 3.376875 1.57375 3.19125 1 3 C0.67 2.01 0.34 1.02 0 0 Z " fill="#D32489" transform="translate(53,227)"/>
<path d="M0 0 C2.0625 0.4375 2.0625 0.4375 4 1 C4.33 2.98 4.66 4.96 5 7 C2.5625 6.25 2.5625 6.25 0 5 C-0.875 2.9375 -0.875 2.9375 -1 1 C-0.67 0.67 -0.34 0.34 0 0 Z " fill="#672E66" transform="translate(148,193)"/>
<path d="M0 0 C3.37462715 0.54723683 5.08235 1.0549 8 3 C7.67 4.32 7.34 5.64 7 7 C5.83040013 6.02433888 4.66438823 5.044375 3.5 4.0625 C2.8503125 3.51722656 2.200625 2.97195312 1.53125 2.41015625 C1.0259375 1.94480469 0.520625 1.47945312 0 1 C0 0.67 0 0.34 0 0 Z " fill="#832472" transform="translate(107,152)"/>
<path d="M0 0 C0.66 0.33 1.32 0.66 2 1 C-2.455 3.97 -2.455 3.97 -7 7 C-7.99 6.34 -8.98 5.68 -10 5 C-9.36191406 4.72285156 -8.72382812 4.44570312 -8.06640625 4.16015625 C-7.24011719 3.79792969 -6.41382812 3.43570313 -5.5625 3.0625 C-4.73878906 2.70285156 -3.91507812 2.34320313 -3.06640625 1.97265625 C-1.05589883 1.16877677 -1.05589883 1.16877677 0 0 Z " fill="#CA533B" transform="translate(124,132)"/>
<path d="M0 0 C-1.09758507 0.84198307 -2.20335317 1.67330671 -3.3125 2.5 C-3.92738281 2.9640625 -4.54226562 3.428125 -5.17578125 3.90625 C-7 5 -7 5 -10 5 C-10 4.34 -10 3.68 -10 3 C-9.01 2.67 -8.02 2.34 -7 2 C-6.67 1.34 -6.34 0.68 -6 0 C-3 -1 -3 -1 0 0 Z " fill="#D62A6A" transform="translate(178,95)"/>
<path d="M0 0 C2.9375 0.8125 2.9375 0.8125 6 2 C6.33 2.99 6.66 3.98 7 5 C4.36 4.34 1.72 3.68 -1 3 C-0.67 2.01 -0.34 1.02 0 0 Z " fill="#9C4480" transform="translate(39,105)"/>
<path d="M0 0 C0.99 0 1.98 0 3 0 C2.75 2.375 2.75 2.375 2 5 C-0.0625 6.3125 -0.0625 6.3125 -2 7 C-1.67 5.68 -1.34 4.36 -1 3 C-0.34 3 0.32 3 1 3 C0.67 2.01 0.34 1.02 0 0 Z " fill="#CC3263" transform="translate(165,100)"/>
<path d="M0 0 C0.99 0.33 1.98 0.66 3 1 C1.5361389 5.39158329 -0.97831338 5.87947433 -5 8 C-4 5 -4 5 -1 3 C-0.67 2.01 -0.34 1.02 0 0 Z " fill="#DA3277" transform="translate(185,85)"/>
<path d="M0 0 C1.32 0.33 2.64 0.66 4 1 C2.515 4.465 2.515 4.465 1 8 C0.67 8 0.34 8 0 8 C0 5.36 0 2.72 0 0 Z " fill="#982A87" transform="translate(40,108)"/>
<path d="M0 0 C2.03144641 0.93446535 4.03533587 1.93224776 6 3 C4.02 3.99 4.02 3.99 2 5 C0.68 3.68 -0.64 2.36 -2 1 C-1.34 0.67 -0.68 0.34 0 0 Z " fill="#8F247D" transform="translate(78,131)"/>
<path d="M0 0 C0 0.99 0 1.98 0 3 C-2.3431213 2.74438677 -4.67843403 2.40729228 -7 2 C-7.33 1.34 -7.66 0.68 -8 0 C-4.71023192 -1.09658936 -3.28696233 -0.79953138 0 0 Z " fill="#DF8437" transform="translate(82,110)"/>
</svg>
